<svg xmlns="http://www.w3.org/2000/svg" width="30.84" height="30.84" viewBox="0 0 30.84 30.84">
    <path d="M17,2A15,15,0,1,1,2,17,15,15,0,0,1,17,2Z" transform="translate(-1.54 -1.54)" fill="none" stroke="#fff" stroke-miterlimit="10" stroke-width="0.84"/>
    <path d="M24.47,19.56a3.92,3.92,0,0,1-1.15,2.86,4.39,4.39,0,0,1-3,1.1c-1.18.06-4.71.06-5.88,0a4.44,4.44,0,0,1-3-1.1,3.92,3.92,0,0,1-1.15-2.86c-.07-1.12-.07-4.49,0-5.62a3.92,3.92,0,0,1,1.15-2.85,4.34,4.34,0,0,1,3-1.1c1.17-.07,4.7-.07,5.88,0a4.3,4.3,0,0,1,3,1.1,3.9,3.9,0,0,1,1.15,2.85C24.54,15.07,24.54,18.44,24.47,19.56Zm-1.23-2.81a14,14,0,0,0-.29-4,2.37,2.37,0,0,0-1.35-1.3,16.69,16.69,0,0,0-4.2-.27,16.66,16.66,0,0,0-4.2.27,2.35,2.35,0,0,0-1.36,1.3,14.39,14.39,0,0,0-.28,4,14.49,14.49,0,0,0,.28,4,2.31,2.31,0,0,0,1.36,1.29,16.18,16.18,0,0,0,4.2.28,16.24,16.24,0,0,0,4.2-.28A2.32,2.32,0,0,0,23,20.77,14.12,14.12,0,0,0,23.24,16.75Zm-2.19,0a3.56,3.56,0,0,1-3.65,3.49,3.49,3.49,0,1,1,3.65-3.49Zm-1.28,0A2.38,2.38,0,1,0,17.4,19,2.32,2.32,0,0,0,19.77,16.75Zm1.43-2.82a.82.82,0,1,1,.85-.81A.83.83,0,0,1,21.2,13.93Z" transform="translate(-1.54 -1.54)" fill="#fff"/>
</svg>
