<svg xmlns="http://www.w3.org/2000/svg" width="30.84" height="30.84" viewBox="0 0 30.84 30.84">
    <path d="M17,2A15,15,0,1,1,2,17,15,15,0,0,1,17,2Z" transform="translate(-1.54 -1.54)" fill="none" stroke="#fff" stroke-miterlimit="10" stroke-width="0.84"/>
    <path d="M24,14.46a8.56,8.56,0,0,1-8.84,8.41,9.08,9.08,0,0,1-4.76-1.33,6.17,6.17,0,0,0,.75,0A6.45,6.45,0,0,0,15,20.32a3.1,3.1,0,0,1-2.9-2.05,3.69,3.69,0,0,0,.58,0,3.18,3.18,0,0,0,.82-.1A3,3,0,0,1,11,15.31v0a3.23,3.23,0,0,0,1.4.37A2.92,2.92,0,0,1,11,13.19a2.81,2.81,0,0,1,.42-1.49,9,9,0,0,0,6.4,3.09,3.82,3.82,0,0,1-.07-.68,3,3,0,0,1,3.1-2.95,3.19,3.19,0,0,1,2.27.93,6.27,6.27,0,0,0,2-.71A3,3,0,0,1,23.74,13a6.57,6.57,0,0,0,1.78-.46A6.44,6.44,0,0,1,24,14.08C24,14.21,24,14.33,24,14.46Z" transform="translate(-1.54 -1.54)" fill="#fff"/>
</svg>
